PathFileType	4	(X/Y/Z)	25_coords_data.trc
DataRate	CameraRate	NumFrames	NumMarkers	Units	OrigDataRate	OrigDataStartFrame	OrigNumFrames
30.0	30.0	8	21	m	30.0	41	80
Frame#	Time	THUMB_TIP	THUMB_IP	THUMB_MCP	THUMB_CMC	INDEX_TIP	INDEX_DIP	INDEX_PIP	INDEX_MCP	MIDDLE_TIP	MIDDLE_DIP	MIDDLE_PIP	MIDDLE_MCP	RING_TIP	RING_DIP	RING_PIP	RING_MCP	PINKY_TIP	PINKY_DIP	PINKY_PIP	PINKY_MCP	WRIST
X1	Y1	Z1	X2	Y2	Z2	X3	Y3	Z3	X4	Y4	Z4	X5	Y5	Z5	X6	Y6	Z6	X7	Y7	Z7	X8	Y8	Z8	X9	Y9	Z9	X10	Y10	Z10	X11	Y11	Z11	X12	Y12	Z12	X13	Y13	Z13	X14	Y14	Z14	X15	Y15	Z15	X16	Y16	Z16	X17	Y17	Z17	X18	Y18	Z18	X19	Y19	Z19	X20	Y20	Z20	X21	Y21	Z21
39	1.3333333333333275	0.5185840329074163	-0.003272236073584067	-0.1599594467222783	0.5046181149842732	-0.008329227743094192	-0.1424271915388018	0.48453694229061683	-0.016398618766773954	-0.12005641972032177	0.4751448807672435	-0.02568242103543783	-0.07744785020927714	0.5691531926668527	0.01655055360648139	-0.16223988721249305	0.5542151498285138	0.019837447700091104	-0.1525418872445954	0.5339981577213634	0.02530721640539535	-0.1386363238453695	0.5002355738647993	0.02178924604561172	-0.11291963840816432	0.5866060192308465	0.015648370670787948	-0.1439591361252422	0.5721420968112376	0.021869201598950894	-0.1350094874839411	0.549274574539647	0.03059230020255943	-0.1191856596944953	0.5126072980523995	0.025278526789305977	-0.09421722826357953	0.5909683913502164	0.014218095295395416	-0.12553163453309663	0.5770188439552852	0.019460898533281368	-0.11538653021202716	0.5574393716090288	0.025769159443639444	-0.10134978963848096	0.5239514592090893	0.02007956974461822	-0.07942014928231561	0.5901538236262931	0.008852506479991362	-0.10687217476285205	0.5765382669756538	0.009409099768068807	-0.09651327419353972	0.5591296820694589	0.010116209148218203	-0.08479776366739061	0.528623785678574	0.006334697867267036	-0.06593049283081664	0.4622830810018608	-0.023011742144276925	-0.05198982011943104
40	1.3666666666666607	0.5165508223488353	-0.002396992705571588	-0.1610688379580496	0.503279268301724	-0.007680688237656996	-0.14307027094012215	0.4838347338391301	-0.015988032190984436	-0.12022912131988389	0.47487487917654636	-0.025571421915942083	-0.07759381147223593	0.5688433147065111	0.01716371373681902	-0.1627895534296308	0.5539385224467992	0.02016005992546488	-0.15294734446961494	0.5337549827937402	0.025310383772457534	-0.13887223436899765	0.5001514616489775	0.021828357673773224	-0.1129431974620555	0.5865255187474999	0.016327450115923625	-0.1445306595313775	0.5720002620956676	0.02222116095744564	-0.13545976697799977	0.5491119855353715	0.030592633183502138	-0.11947681359422957	0.512578107734955	0.02521208492683691	-0.09432778986920326	0.5910083049077435	0.015148288604191706	-0.12606106426250802	0.5769785190286848	0.020031460660641986	-0.11584736077871371	0.5573349222984526	0.025846728975115862	-0.10168785016108695	0.5239729092952965	0.01991368522905068	-0.0796311977794466	0.5902587861980042	0.00953322828008396	-0.10699084573249051	0.576586088272144	0.009749200888360066	-0.09669469658532631	0.5591424517205096	0.010136274782012511	-0.08501643744043058	0.5286549755712358	0.006153277485119402	-0.0661608552011998	0.4622830810018609	-0.023011742144276925	-0.05198982011943093
41	1.3999999999999937	0.5139369390355953	-0.001216325671053342	-0.16233505952050975	0.5015137777076742	-0.0068425341306050935	-0.14384152440712178	0.48287450035122526	-0.015480554276182779	-0.12045815536855164	0.4745123043602286	-0.025421741272005915	-0.07778337968874	0.5685627416635344	0.018214275659243384	-0.16357057940012326	0.553683483841588	0.02071938015754904	-0.15355398626070604	0.5335387497330909	0.025321036412553233	-0.13923531731388245	0.5001439762851478	0.021675102129068535	-0.11306028410356778	0.5865928100026745	0.01755638627537215	-0.14531001753933265	0.5719481140447551	0.022888971160459626	-0.13608524552353551	0.5489726953225483	0.030642382388098688	-0.11991662471425196	0.5126174726132507	0.024949900987775164	-0.094578089668509	0.5911935337626576	0.016541096920523413	-0.1267572308763657	0.5770297825950972	0.020828022326838225	-0.11646109454159809	0.5572695028881877	0.025909804397726166	-0.10218220047067272	0.5240455988263069	0.019543678241180085	-0.08003800324779081	0.5904836533569435	0.010539852444235054	-0.10708745617535337	0.5767219389253222	0.010270985558568313	-0.09691185169697986	0.5592167101894816	0.010181976447825924	-0.08531999838165077	0.5287221337241432	0.005799108189762925	-0.06656487313461246	0.4622830810018608	-0.023011742144276925	-0.051989820119430985
42	1.4333333333333271	0.5108179129224989	0.00010891505702503856	-0.16367434444776985	0.49937564988772065	-0.005936110560023078	-0.14468665680729653	0.4816911723275329	-0.014959006689214127	-0.1207144520929812	0.47407238070724145	-0.02530873079801843	-0.07799762607420713	0.568277316023813	0.01966564701813389	-0.16456044431701122	0.5534396436648358	0.021520640081200026	-0.15434269115383387	0.5333493367816048	0.025376074859501996	-0.13973019564458355	0.5002312404417163	0.021318260878335105	-0.11326584349842078	0.586829380399829	0.019316003249280844	-0.14617576518425623	0.5720334296715224	0.023911245613067345	-0.13679687454284334	0.5489079415687443	0.03073717761493011	-0.12042531376464582	0.5127539514956172	0.02449061290885235	-0.09492987589499913	0.5915617787850507	0.01827375311082935	-0.12739463401660822	0.5772248221742168	0.02178201052694473	-0.11704360483872739	0.5573050313869412	0.02595338109199241	-0.10269154639402239	0.5242045856517912	0.018969004714078364	-0.08054883172878713	0.5908545321098365	0.011771155992888804	-0.10700985511778083	0.5769865498535245	0.010899276215367348	-0.0970139112507834	0.5593967504963238	0.010223708339767712	-0.08557037221694946	0.5288533530519084	0.005243924926051302	-0.06704509001383696	0.4622830810018608	-0.023011742144276925	-0.051989820119430985
43	1.4666666666666603	0.5073711378359648	0.001470684355588281	-0.1649968634680256	0.49698327393115926	-0.005025533866130916	-0.14555743363299584	0.48036375747220805	-0.014463621000819105	-0.12099050089997682	0.4735780929808313	-0.025190143292721734	-0.07822618777639456	0.5680168386032911	0.021384223783941336	-0.1656359151873722	0.5532469541484372	0.022416878206586333	-0.15520595171506524	0.5332242117656323	0.0254025876241889	-0.14030007503016456	0.5004217752606057	0.02077463398415136	-0.11353781992265599	0.5871755487745098	0.0215331782581758	-0.14706696160992433	0.5722057452660236	0.025239084795365296	-0.13757110779602577	0.5489019585133643	0.030841687950647234	-0.12098937354200384	0.512974427858436	0.02385522506972082	-0.0953661458286062	0.5920252951780998	0.020361519504074943	-0.12799788708239185	0.5774926534227474	0.022874943216443344	-0.11763038859660974	0.5574044952315355	0.025975562160566845	-0.10324178054550953	0.524445099222251	0.018188544598428558	-0.08115645948852407	0.5912818010049687	0.013223828962821482	-0.1068016494239471	0.5773083265114979	0.011635764390610648	-0.09704357269260272	0.559624286445736	0.010251131635697353	-0.08581105124430122	0.5290270124146839	0.004528642483233147	-0.06759173756983389	0.4622830810018609	-0.023011742144276925	-0.05198982011943093
44	1.4999999999999936	0.5036629667397582	0.0029180514649298495	-0.1662048238514589	0.49435158540462865	-0.004067136640167113	-0.14639307671072915	0.4788623932900372	-0.013965577777054317	-0.12127484049285636	0.4730330482016555	-0.02506359305553474	-0.07846429514805636	0.5676772054800872	0.023522306844709684	-0.16684749909810803	0.5530081733837539	0.023589037936658674	-0.1562260564315907	0.5331075206541638	0.02548729890396151	-0.1409823541504429	0.5007034526506466	0.02001750440538641	-0.11389557104563713	0.5875601697298651	0.024321255071965364	-0.14799600582189237	0.5724207915190997	0.026851238593031068	-0.1383835966142828	0.5489290462064018	0.031010083592634463	-0.12164288395225403	0.5132949255462321	0.022990486591053516	-0.0959126793337769	0.592552195217273	0.02279943205551871	-0.12853192131116659	0.5778378136919041	0.024146199881355024	-0.11820364978350145	0.5575720337610492	0.02593568224764342	-0.10384134162447262	0.5247589461382797	0.017161567086113383	-0.08190878550821812	0.591760612131429	0.014909838841445144	-0.10642326027159132	0.5776949000245859	0.012492644352917082	-0.09697270929654045	0.5599175983321355	0.010238656681108349	-0.08603200076779638	0.5292429615312374	0.0036035847300877055	-0.06825769548354516	0.4622830810018608	-0.023011742144276925	-0.051989820119430985
45	1.5333333333333266	0.5000048546190514	0.004335246595484232	-0.16719039878565595	0.49174700857441467	-0.0031573143502521273	-0.14709887049193215	0.47737539968388176	-0.01353387418042673	-0.12151364303567597	0.4725045194109543	-0.024992071547302208	-0.078678210990831	0.567340659825422	0.025796796660929266	-0.16794815298677968	0.5528119688722016	0.024832283508455566	-0.15717843369774914	0.5330612452344328	0.025554088334772018	-0.1416414537281031	0.5010804937838346	0.019146176841515095	-0.1142588625258511	0.5879378432378217	0.027253164679937214	-0.14874519750621967	0.5726733505630647	0.028584716689949663	-0.1390900313954309	0.549027049615832	0.031137026841926874	-0.12224521871018501	0.5136999035128795	0.021998364697958794	-0.09646488660528274	0.5930396374564789	0.025335080635393026	-0.1288855601745731	0.5781952697316581	0.02543535855620571	-0.11865645018450566	0.5577898040013033	0.0258008045921424	-0.10438538167082617	0.5251375432833384	0.015994499389813455	-0.08265091406094838	0.5922367990850366	0.016565986465891025	-0.10581415299270569	0.5781031527231719	0.013295742624677698	-0.09672869506606518	0.5602458679379079	0.010193202349643382	-0.08613135375138792	0.5295012838660772	0.002530916033481989	-0.06889930890292895	0.4622830810018609	-0.023011742144276925	-0.05198982011943104
46	1.5666666666666598	0.49605481092414405	0.005833109045180085	-0.16806371285250926	0.48891101344489096	-0.0021928779374514873	-0.14775239358147102	0.4757538694858311	-0.013083365829144933	-0.1217311169732519	0.47193467237989406	-0.024928168004109796	-0.078894165693989	0.5668233959852884	0.028236818137714614	-0.16910930946913144	0.5525013193876125	0.026181629923833882	-0.15821645294130415	0.532979521098552	0.025584430886048337	-0.1423876002390233	0.5015133549649101	0.01810488814934441	-0.11468249379093565	0.5882001549417921	0.03035955391136813	-0.14945219837815776	0.5728738440710344	0.03038093453486357	-0.13980317055345792	0.5491433472615014	0.031185702958570483	-0.12290271437745653	0.5141833461801935	0.020802465090560163	-0.09709313056114366	0.5934430659522312	0.027908910265473597	-0.12913104192313007	0.5785331682099499	0.026698881643550387	-0.11906969111675991	0.5580463063521449	0.025520432401041293	-0.10496012955014689	0.5255804405289042	0.01458833265761239	-0.08348508390299958	0.5926266607465337	0.018168314601936797	-0.10514010222697007	0.5784770661851022	0.014006241920659357	-0.09645297814918291	0.5605736413914661	0.009978948825659528	-0.08625198261023759	0.5297974951337159	0.001248024737986575	-0.06959415450760464	0.462283081001861	-0.023011742144276925	-0.051989820119430985
